<svg xmlns="http://www.w3.org/2000/svg" xmlns:xlink="http://www.w3.org/1999/xlink" width="1370" zoomAndPan="magnify" viewBox="225.88 310.94 1369.71 264.67" height="265" preserveAspectRatio="xMidYMid meet" version="1.0"><defs><g/><clipPath id="37b94f6084"><rect x="0" width="911" y="0" height="268"/></clipPath></defs><path fill="#f8f9f9" d="M 362.617188 340.398438 C 349.738281 346.25 348.921875 365.261719 361.242188 372.484375 C 376.734375 381.5625 394.347656 364.203125 385.9375 348.148438 C 381.851562 340.34375 370.8125 336.675781 362.617188 340.398438 M 575.25 358.203125 C 561.511719 359.390625 544.332031 361.800781 542.785156 362.757812 C 542.421875 362.980469 543.25 363.84375 544.625 364.667969 C 546 365.496094 549.464844 367.898438 552.328125 370.011719 L 557.53125 373.851562 L 567.328125 373.980469 C 613.867188 374.59375 628.726562 402.726562 598.003906 432.054688 C 589.492188 440.179688 562.933594 459 559.976562 459 C 559.851562 459 560.054688 456.890625 560.433594 454.3125 C 565.957031 416.394531 532.972656 379.742188 493.5 379.941406 C 428.480469 380.265625 400.78125 462.003906 452.488281 500.96875 C 457.703125 504.898438 458.546875 504.265625 441.585938 509.183594 C 391.199219 523.789062 342.691406 530.863281 322.125 526.609375 C 283.023438 518.515625 281.515625 487.390625 318.859375 459.265625 C 322.347656 456.640625 324.851562 454.105469 325.664062 452.371094 C 328.554688 446.222656 333.75 434.4375 333.75 434.023438 C 333.75 433.125 317.722656 442.695312 307.125 449.925781 C 239.605469 495.972656 235.820312 538.40625 298.519531 546.410156 C 337.9375 551.441406 406.863281 540.296875 466.875 519.191406 C 480.753906 514.308594 481.300781 514.179688 487.875 514.328125 C 513.246094 514.898438 536.78125 503.804688 548.648438 485.695312 C 549.363281 484.601562 553.84375 481.730469 559.351562 478.828125 C 666.40625 422.496094 684.863281 359.59375 594.75 358.167969 C 585.882812 358.027344 577.105469 358.042969 575.25 358.203125 M 607.125 375.28125 C 636.554688 380.792969 639.136719 395.402344 614.832031 418.902344 C 604.714844 428.683594 603.78125 429.296875 608.039062 423.375 C 628.449219 394.96875 621.339844 379.390625 585.75 374.53125 L 578.625 373.554688 L 589.875 373.859375 C 596.0625 374.023438 603.824219 374.664062 607.125 375.28125 M 367.5 390.023438 C 361.625 391.050781 356.300781 395.566406 354.410156 401.117188 C 352.328125 407.222656 352.703125 494.605469 354.828125 499.125 C 360.960938 512.171875 378.1875 512.640625 384.980469 499.945312 C 386.625 496.878906 386.625 496.824219 386.625 449.25 L 386.625 401.625 L 384.636719 398.25 C 381.011719 392.097656 374.222656 388.839844 367.5 390.023438 M 508.179688 415.074219 C 527.453125 424.59375 534.5 449.046875 522.847656 465.980469 C 502.832031 495.074219 458.25 481.976562 458.25 447 C 458.25 421.027344 485.257812 403.761719 508.179688 415.074219 M 297.480469 478.3125 C 284.492188 496.6875 282.917969 509.667969 292.671875 517.914062 C 298 522.417969 311.84375 527.25 319.421875 527.25 C 320.652344 527.25 321.863281 527.578125 322.113281 527.984375 C 322.695312 528.925781 310.640625 528.285156 299.75 526.792969 C 268.703125 522.542969 265.972656 508.191406 291.320312 482.453125 C 299.617188 474.023438 301.316406 472.878906 297.480469 478.3125 " fill-opacity="1" fill-rule="evenodd"/><g transform="matrix(1, 0, 0, 1, 677, 288)"><g clip-path="url(#37b94f6084)"><g fill="#fafafb" fill-opacity="1"><g transform="translate(0.411899, 214.231423)"><g><path d="M 57.125 2.5625 C 48.09375 2.5625 39.242188 0.851562 30.578125 -2.5625 C 21.910156 -5.976562 14.28125 -10.859375 7.6875 -17.203125 L 23.25 -35.890625 C 28.132812 -31.367188 33.597656 -27.734375 39.640625 -24.984375 C 45.679688 -22.242188 51.691406 -20.875 57.671875 -20.875 C 64.753906 -20.875 70.125 -22.273438 73.78125 -25.078125 C 77.445312 -27.890625 79.28125 -31.675781 79.28125 -36.4375 C 79.28125 -39.851562 78.425781 -42.566406 76.71875 -44.578125 C 75.007812 -46.597656 72.628906 -48.367188 69.578125 -49.890625 C 66.523438 -51.421875 62.984375 -53.039062 58.953125 -54.75 L 40.828125 -62.4375 C 36.316406 -64.382812 31.953125 -66.914062 27.734375 -70.03125 C 23.523438 -73.144531 20.078125 -77.082031 17.390625 -81.84375 C 14.703125 -86.601562 13.359375 -92.28125 13.359375 -98.875 C 13.359375 -106.320312 15.375 -112.972656 19.40625 -118.828125 C 23.4375 -124.679688 28.957031 -129.347656 35.96875 -132.828125 C 42.988281 -136.304688 51.078125 -138.046875 60.234375 -138.046875 C 68.171875 -138.046875 75.859375 -136.550781 83.296875 -133.5625 C 90.742188 -130.570312 97.21875 -126.269531 102.71875 -120.65625 L 88.984375 -103.625 C 84.710938 -107.164062 80.253906 -109.910156 75.609375 -111.859375 C 70.972656 -113.816406 65.847656 -114.796875 60.234375 -114.796875 C 54.253906 -114.796875 49.523438 -113.546875 46.046875 -111.046875 C 42.566406 -108.546875 40.828125 -105.035156 40.828125 -100.515625 C 40.828125 -97.347656 41.769531 -94.722656 43.65625 -92.640625 C 45.550781 -90.566406 48.113281 -88.796875 51.34375 -87.328125 C 54.582031 -85.867188 58.097656 -84.347656 61.890625 -82.765625 L 79.640625 -75.25 C 87.941406 -71.832031 94.5625 -67.285156 99.5 -61.609375 C 104.445312 -55.929688 106.921875 -48.210938 106.921875 -38.453125 C 106.921875 -31.128906 104.9375 -24.351562 100.96875 -18.125 C 97.007812 -11.894531 91.335938 -6.890625 83.953125 -3.109375 C 76.566406 0.671875 67.625 2.5625 57.125 2.5625 Z M 57.125 2.5625 "/></g></g></g><g fill="#fafafb" fill-opacity="1"><g transform="translate(125.644925, 214.231423)"><g><path d="M 57.3125 2.5625 C 48.757812 2.5625 40.726562 0.457031 33.21875 -3.75 C 25.71875 -7.957031 19.648438 -14.085938 15.015625 -22.140625 C 10.378906 -30.203125 8.0625 -39.910156 8.0625 -51.265625 C 8.0625 -62.617188 10.378906 -72.289062 15.015625 -80.28125 C 19.648438 -88.28125 25.71875 -94.414062 33.21875 -98.6875 C 40.726562 -102.957031 48.757812 -105.09375 57.3125 -105.09375 C 65.851562 -105.09375 73.875 -102.957031 81.375 -98.6875 C 88.882812 -94.414062 94.957031 -88.28125 99.59375 -80.28125 C 104.238281 -72.289062 106.5625 -62.617188 106.5625 -51.265625 C 106.5625 -39.910156 104.238281 -30.203125 99.59375 -22.140625 C 94.957031 -14.085938 88.882812 -7.957031 81.375 -3.75 C 73.875 0.457031 65.851562 2.5625 57.3125 2.5625 Z M 57.3125 -19.40625 C 64.269531 -19.40625 69.640625 -22.300781 73.421875 -28.09375 C 77.203125 -33.894531 79.09375 -41.617188 79.09375 -51.265625 C 79.09375 -60.910156 77.203125 -68.628906 73.421875 -74.421875 C 69.640625 -80.222656 64.269531 -83.125 57.3125 -83.125 C 50.351562 -83.125 44.976562 -80.222656 41.1875 -74.421875 C 37.40625 -68.628906 35.515625 -60.910156 35.515625 -51.265625 C 35.515625 -41.617188 37.40625 -33.894531 41.1875 -28.09375 C 44.976562 -22.300781 50.351562 -19.40625 57.3125 -19.40625 Z M 57.3125 -19.40625 "/></g></g></g><g fill="#fafafb" fill-opacity="1"><g transform="translate(250.328641, 214.231423)"><g><path d="M 19.046875 0 L 19.046875 -81.296875 L 5.3125 -81.296875 L 5.3125 -101.25 L 19.046875 -102.34375 L 19.046875 -110.765625 C 19.046875 -117.972656 20.234375 -124.414062 22.609375 -130.09375 C 24.992188 -135.769531 28.804688 -140.285156 34.046875 -143.640625 C 39.296875 -146.992188 46.195312 -148.671875 54.75 -148.671875 C 58.65625 -148.671875 62.285156 -148.300781 65.640625 -147.5625 C 68.992188 -146.832031 71.832031 -146.039062 74.15625 -145.1875 L 69.203125 -125.234375 C 67.492188 -125.960938 65.691406 -126.507812 63.796875 -126.875 C 61.910156 -127.25 60.113281 -127.4375 58.40625 -127.4375 C 54.375 -127.4375 51.289062 -126.179688 49.15625 -123.671875 C 47.019531 -121.171875 45.953125 -117.054688 45.953125 -111.328125 L 45.953125 -102.53125 L 65.1875 -102.53125 L 65.1875 -81.296875 L 45.953125 -81.296875 L 45.953125 0 Z M 19.046875 0 "/></g></g></g><g fill="#fafafb" fill-opacity="1"><g transform="translate(329.423689, 214.231423)"><g><path d="M 52 2.5625 C 43.945312 2.5625 37.445312 0.945312 32.5 -2.28125 C 27.550781 -5.519531 23.945312 -10.035156 21.6875 -15.828125 C 19.4375 -21.628906 18.3125 -28.316406 18.3125 -35.890625 L 18.3125 -81.296875 L 3.84375 -81.296875 L 3.84375 -101.25 L 19.78125 -102.53125 L 22.890625 -130.171875 L 45.21875 -130.171875 L 45.21875 -102.53125 L 70.484375 -102.53125 L 70.484375 -81.296875 L 45.21875 -81.296875 L 45.21875 -35.890625 C 45.21875 -24.410156 49.859375 -18.671875 59.140625 -18.671875 C 60.847656 -18.671875 62.617188 -18.914062 64.453125 -19.40625 C 66.285156 -19.894531 67.867188 -20.382812 69.203125 -20.875 L 73.609375 -1.28125 C 70.921875 -0.425781 67.773438 0.425781 64.171875 1.28125 C 60.566406 2.132812 56.507812 2.5625 52 2.5625 Z M 52 2.5625 "/></g></g></g><g fill="#fafafb" fill-opacity="1"><g transform="translate(417.306932, 214.231423)"><g><path d="M 31.484375 0 L 4.9375 -102.53125 L 31.859375 -102.53125 L 43.03125 -52 C 44 -46.988281 44.878906 -42.007812 45.671875 -37.0625 C 46.472656 -32.125 47.300781 -27.09375 48.15625 -21.96875 L 48.890625 -21.96875 C 49.859375 -27.09375 50.863281 -32.15625 51.90625 -37.15625 C 52.945312 -42.164062 54.078125 -47.113281 55.296875 -52 L 67.75 -102.53125 L 91.546875 -102.53125 L 104.359375 -52 C 105.578125 -46.988281 106.675781 -42.007812 107.65625 -37.0625 C 108.632812 -32.125 109.671875 -27.09375 110.765625 -21.96875 L 111.6875 -21.96875 C 112.664062 -27.09375 113.550781 -32.125 114.34375 -37.0625 C 115.132812 -42.007812 115.957031 -46.988281 116.8125 -52 L 127.984375 -102.53125 L 152.890625 -102.53125 L 127.609375 0 L 95.9375 0 L 85.140625 -44.671875 C 84.035156 -49.554688 83.023438 -54.410156 82.109375 -59.234375 C 81.203125 -64.054688 80.257812 -69.148438 79.28125 -74.515625 L 78.359375 -74.515625 C 77.390625 -69.148438 76.476562 -64.023438 75.625 -59.140625 C 74.769531 -54.253906 73.789062 -49.429688 72.6875 -44.671875 L 62.25 0 Z M 31.484375 0 "/></g></g></g><g fill="#fafafb" fill-opacity="1"><g transform="translate(584.100596, 214.231423)"><g><path d="M 39.734375 2.5625 C 33.628906 2.5625 28.285156 1.25 23.703125 -1.375 C 19.128906 -4 15.59375 -7.628906 13.09375 -12.265625 C 10.59375 -16.898438 9.34375 -22.085938 9.34375 -27.828125 C 9.34375 -38.816406 14.039062 -47.332031 23.4375 -53.375 C 32.832031 -59.414062 47.847656 -63.535156 68.484375 -65.734375 C 68.234375 -70.734375 66.828125 -74.941406 64.265625 -78.359375 C 61.703125 -81.773438 57.25 -83.484375 50.90625 -83.484375 C 46.144531 -83.484375 41.441406 -82.566406 36.796875 -80.734375 C 32.160156 -78.910156 27.460938 -76.59375 22.703125 -73.78125 L 13 -91.546875 C 19.101562 -95.328125 25.753906 -98.53125 32.953125 -101.15625 C 40.160156 -103.78125 47.789062 -105.09375 55.84375 -105.09375 C 68.90625 -105.09375 78.726562 -101.273438 85.3125 -93.640625 C 91.90625 -86.015625 95.203125 -74.757812 95.203125 -59.875 L 95.203125 0 L 73.234375 0 L 71.40625 -10.984375 L 70.671875 -10.984375 C 66.160156 -7.203125 61.335938 -4 56.203125 -1.375 C 51.078125 1.25 45.585938 2.5625 39.734375 2.5625 Z M 48.515625 -18.5 C 52.421875 -18.5 55.898438 -19.378906 58.953125 -21.140625 C 62.003906 -22.910156 65.179688 -25.382812 68.484375 -28.5625 L 68.484375 -49.25 C 55.910156 -47.664062 47.179688 -45.222656 42.296875 -41.921875 C 37.410156 -38.628906 34.96875 -34.664062 34.96875 -30.03125 C 34.96875 -26 36.25 -23.066406 38.8125 -21.234375 C 41.375 -19.410156 44.609375 -18.5 48.515625 -18.5 Z M 48.515625 -18.5 "/></g></g></g><g fill="#fafafb" fill-opacity="1"><g transform="translate(703.291713, 214.231423)"><g><path d="M 14.46875 0 L 14.46875 -102.53125 L 36.4375 -102.53125 L 38.453125 -84.40625 L 39 -84.40625 C 42.78125 -91.113281 47.265625 -96.238281 52.453125 -99.78125 C 57.640625 -103.320312 62.859375 -105.09375 68.109375 -105.09375 C 70.921875 -105.09375 73.238281 -104.878906 75.0625 -104.453125 C 76.894531 -104.023438 78.601562 -103.507812 80.1875 -102.90625 L 75.625 -79.640625 C 73.789062 -80.253906 72.046875 -80.679688 70.390625 -80.921875 C 68.742188 -81.171875 66.882812 -81.296875 64.8125 -81.296875 C 60.78125 -81.296875 56.566406 -79.800781 52.171875 -76.8125 C 47.785156 -73.820312 44.1875 -68.601562 41.375 -61.15625 L 41.375 0 Z M 14.46875 0 "/></g></g></g><g fill="#fafafb" fill-opacity="1"><g transform="translate(791.907174, 214.231423)"><g><path d="M 59.140625 2.5625 C 49.617188 2.5625 40.984375 0.425781 33.234375 -3.84375 C 25.484375 -8.113281 19.347656 -14.273438 14.828125 -22.328125 C 10.316406 -30.390625 8.0625 -40.035156 8.0625 -51.265625 C 8.0625 -59.566406 9.398438 -67.007812 12.078125 -73.59375 C 14.765625 -80.1875 18.363281 -85.832031 22.875 -90.53125 C 27.394531 -95.238281 32.492188 -98.84375 38.171875 -101.34375 C 43.847656 -103.84375 49.738281 -105.09375 55.84375 -105.09375 C 65.238281 -105.09375 73.109375 -102.988281 79.453125 -98.78125 C 85.804688 -94.570312 90.597656 -88.773438 93.828125 -81.390625 C 97.066406 -74.003906 98.6875 -65.609375 98.6875 -56.203125 C 98.6875 -50.710938 98.257812 -46.566406 97.40625 -43.765625 L 34.234375 -43.765625 C 35.335938 -35.335938 38.453125 -28.957031 43.578125 -24.625 C 48.703125 -20.289062 55.050781 -18.125 62.625 -18.125 C 66.894531 -18.125 70.890625 -18.734375 74.609375 -19.953125 C 78.328125 -21.171875 82.019531 -22.941406 85.6875 -25.265625 L 94.84375 -8.78125 C 89.832031 -5.363281 84.210938 -2.617188 77.984375 -0.546875 C 71.765625 1.523438 65.484375 2.5625 59.140625 2.5625 Z M 33.875 -61.703125 L 75.625 -61.703125 C 75.625 -68.535156 74.035156 -73.992188 70.859375 -78.078125 C 67.679688 -82.171875 62.796875 -84.21875 56.203125 -84.21875 C 50.835938 -84.21875 46.019531 -82.328125 41.75 -78.546875 C 37.476562 -74.765625 34.851562 -69.148438 33.875 -61.703125 Z M 33.875 -61.703125 "/></g></g></g></g></g></svg>